<svg width="32" height="32" viewBox="0 0 32 32" fill="none" xmlns="http://www.w3.org/2000/svg">
<path fill-rule="evenodd" clip-rule="evenodd" d="M16 2.8713C18.1305 2.79139 20.2639 2.85072 22.3867 3.04893C23.4164 3.03629 24.4394 3.21705 25.4024 3.58181C26.7311 4.20101 27.7989 5.26882 28.4181 6.59748C28.7829 7.5605 28.9637 8.58344 28.951 9.61315C28.951 11.2098 29.1287 11.7427 29.1287 15.9997C29.2086 18.1302 29.1492 20.2636 28.951 22.3863C28.9637 23.416 28.7829 24.439 28.4181 25.402C27.7989 26.7307 26.7311 27.7985 25.4024 28.4177C24.4394 28.7824 23.4164 28.9632 22.3867 28.9506C20.79 28.9506 20.2571 29.1282 16 29.1282C13.8695 29.2081 11.7361 29.1488 9.6133 28.9506C8.58358 28.9632 7.56063 28.7824 6.59759 28.4177C5.26891 27.7985 4.20108 26.7307 3.58187 25.402C3.2171 24.439 3.03634 23.416 3.04898 22.3863C3.04898 20.7897 2.87135 20.2568 2.87135 15.9997C2.79143 13.8693 2.85077 11.7359 3.04898 9.61315C3.03634 8.58344 3.2171 7.5605 3.58187 6.59748C3.89139 5.93955 4.31126 5.33945 4.82328 4.8232C5.2391 4.20251 5.87197 3.75972 6.59759 3.58181C7.56063 3.21705 8.58358 3.03629 9.6133 3.04893C11.7361 2.85072 13.8695 2.79139 16 2.8713ZM16 0.0332591C13.8103 -0.0447794 11.6179 0.014546 9.43567 0.210886C8.10277 0.207682 6.78048 0.447788 5.5338 0.919399C4.45728 1.27063 3.48296 1.87974 2.69571 2.69367C1.88077 3.48125 1.27093 4.45629 0.919414 5.53371C0.362904 6.75531 0.119401 8.09626 0.21089 9.43552C0.0145463 11.6177 -0.0447801 13.8101 0.0332597 15.9997C-0.0447801 18.1894 0.0145463 20.3818 0.21089 22.564C0.20808 23.8976 0.448871 25.2206 0.92141 26.4678C1.27265 27.5443 1.88177 28.5186 2.69571 29.3058C3.48296 30.1197 4.45728 30.7289 5.5338 31.0801C6.78098 31.5526 8.10398 31.7934 9.43767 31.7906C11.6193 31.9862 13.811 32.0448 16 31.9662C18.1897 32.0443 20.3821 31.9849 22.5643 31.7886C23.898 31.7914 25.221 31.5506 26.4682 31.0781C27.5368 30.71 28.5074 30.1033 29.3066 29.3041C30.1058 28.505 30.7125 27.5343 31.0806 26.4658C31.5531 25.2186 31.7939 23.8956 31.7911 22.562C31.7891 20.7897 31.9667 20.2568 31.9667 15.9997C32.0448 13.8101 31.9855 11.6177 31.7891 9.43552C31.7919 8.10185 31.5511 6.77888 31.0786 5.53172C30.7274 4.45521 30.1182 3.48091 29.3043 2.69367C28.517 1.87974 27.5427 1.27063 26.4662 0.919399C25.2195 0.447788 23.8972 0.207682 22.5643 0.210886C20.3821 0.014546 18.1897 -0.0447794 16 0.0332591ZM16 7.83887C14.9234 7.82106 13.8542 8.01998 12.856 8.42379C11.8578 8.82761 10.951 9.42807 10.1896 10.1895C9.42823 10.9508 8.82775 11.8576 8.42393 12.8558C8.02011 13.8539 7.82119 14.9231 7.839 15.9997C7.839 17.6138 8.31763 19.1916 9.21438 20.5337C10.1111 21.8757 11.3857 22.9217 12.8769 23.5394C14.3681 24.1571 16.0091 24.3187 17.5921 24.0038C19.1752 23.6889 20.6294 22.9117 21.7707 21.7703C22.912 20.629 23.6893 19.1749 24.0042 17.5918C24.3191 16.0088 24.1575 14.3679 23.5398 12.8767C22.9221 11.3855 21.8761 10.111 20.534 9.21423C19.1919 8.3175 17.6141 7.83887 16 7.83887ZM16 21.3226C15.2974 21.3356 14.5994 21.2068 13.9477 20.9439C13.2961 20.681 12.7041 20.2894 12.2072 19.7925C11.7103 19.2956 11.3187 18.7036 11.0558 18.052C10.7929 17.4003 10.6641 16.7023 10.6771 15.9997C10.6641 15.2972 10.7929 14.5992 11.0558 13.9475C11.3187 13.2958 11.7103 12.7039 12.2072 12.207C12.7041 11.7101 13.2961 11.3185 13.9477 11.0556C14.5994 10.7927 15.2974 10.6639 16 10.6769C16.7026 10.6639 17.4006 10.7927 18.0523 11.0556C18.7039 11.3185 19.2959 11.7101 19.7928 12.207C20.2897 12.7039 20.6813 13.2958 20.9442 13.9475C21.2071 14.5992 21.3359 15.2972 21.3229 15.9997C21.3359 16.7023 21.2071 17.4003 20.9442 18.052C20.6813 18.7036 20.2897 19.2956 19.7928 19.7925C19.2959 20.2894 18.7039 20.681 18.0523 20.9439C17.4006 21.2068 16.7026 21.3356 16 21.3226ZM24.5163 5.53371C24.1302 5.53371 23.7528 5.64819 23.4318 5.86267C23.1108 6.07714 22.8606 6.38199 22.7129 6.73865C22.5652 7.09532 22.5265 7.48778 22.6018 7.86641C22.6771 8.24504 22.8631 8.59284 23.136 8.86582C23.409 9.1388 23.7568 9.3247 24.1355 9.40001C24.5141 9.47533 24.9066 9.43667 25.2632 9.28894C25.6199 9.1412 25.9248 8.89102 26.1392 8.57003C26.3537 8.24904 26.4682 7.87166 26.4682 7.48561C26.464 6.96923 26.257 6.47518 25.8919 6.11002C25.5267 5.74487 25.0327 5.53789 24.5163 5.53371Z" fill="#C8BBBB"/>
</svg>
