<svg width="48" height="48" viewBox="0 0 48 48" fill="none" xmlns="http://www.w3.org/2000/svg">
<path fill-rule="evenodd" clip-rule="evenodd" d="M24 4.30695C27.1957 4.18708 30.3959 4.27608 33.58 4.57339C35.1246 4.55444 36.6591 4.82557 38.1036 5.37271C40.0966 6.30152 41.6984 7.90324 42.6272 9.89622C43.1743 11.3408 43.4455 12.8752 43.4265 14.4197C43.4265 16.8147 43.693 17.614 43.693 23.9996C43.8129 27.1953 43.7238 30.3954 43.4265 33.5795C43.4455 35.1241 43.1743 36.6585 42.6272 38.103C41.6984 40.096 40.0966 41.6977 38.1036 42.6265C36.6591 43.1736 35.1246 43.4448 33.58 43.4258C31.185 43.4258 30.3857 43.6923 24 43.6923C20.8043 43.8121 17.6041 43.7231 14.42 43.4258C12.8754 43.4448 11.3409 43.1736 9.89638 42.6265C7.90336 41.6977 6.30162 40.096 5.3728 38.103C4.82565 36.6585 4.55451 35.1241 4.57347 33.5795C4.57347 31.1845 4.30702 30.3852 4.30702 23.9996C4.18715 20.8039 4.27615 17.6038 4.57347 14.4197C4.55451 12.8752 4.82565 11.3408 5.3728 9.89622C5.83708 8.90932 6.46688 8.00918 7.23492 7.23481C7.85865 6.30377 8.80795 5.63958 9.89638 5.37271C11.3409 4.82557 12.8754 4.55444 14.42 4.57339C17.6041 4.27608 20.8043 4.18708 24 4.30695ZM24 0.0498887C20.7155 -0.067169 17.4269 0.0218191 14.1535 0.316329C12.1542 0.311523 10.1707 0.671682 8.3007 1.3791C6.68592 1.90594 5.22444 2.81961 4.04357 4.04051C2.82115 5.22188 1.9064 6.68444 1.37912 8.30057C0.544356 10.133 0.179102 12.1444 0.316334 14.1533C0.0218194 17.4266 -0.0671701 20.7152 0.0498895 23.9996C-0.0671701 27.2841 0.0218194 30.5726 0.316334 33.8459C0.31212 35.8464 0.673306 37.8309 1.38211 39.7016C1.90897 41.3164 2.82265 42.7779 4.04357 43.9587C5.22444 45.1796 6.68592 46.0933 8.3007 46.6201C10.1715 47.3289 12.156 47.6901 14.1565 47.6859C17.4289 47.9793 20.7166 48.0673 24 47.9493C27.2845 48.0664 30.5731 47.9774 33.8465 47.6829C35.847 47.6871 37.8315 47.3259 39.7023 46.6171C41.3051 46.0649 42.7612 45.155 43.9599 43.9562C45.1587 42.7575 46.0687 41.3015 46.6209 39.6987C47.3297 37.8279 47.6909 35.8435 47.6867 33.8429C47.6837 31.1845 47.9501 30.3852 47.9501 23.9996C48.0672 20.7152 47.9782 17.4266 47.6837 14.1533C47.6879 12.1528 47.3267 10.1683 46.6179 8.29757C46.091 6.68282 45.1773 5.22136 43.9564 4.04051C42.7756 2.81961 41.3141 1.90594 39.6993 1.3791C37.8293 0.671682 35.8458 0.311523 33.8465 0.316329C30.5731 0.0218191 27.2845 -0.067169 24 0.0498887ZM24 11.7583C22.3851 11.7316 20.7812 12.03 19.284 12.6357C17.7867 13.2414 16.4265 14.1421 15.2844 15.2842C14.1423 16.4263 13.2416 17.7864 12.6359 19.2836C12.0302 20.7809 11.7318 22.3847 11.7585 23.9996C11.7585 26.4207 12.4764 28.7874 13.8216 30.8005C15.1667 32.8136 17.0785 34.3826 19.3154 35.3091C21.5522 36.2356 24.0136 36.478 26.3882 36.0057C28.7628 35.5334 30.944 34.3675 32.656 32.6555C34.368 30.9435 35.5339 28.7624 36.0063 26.3878C36.4786 24.0132 36.2362 21.5519 35.3097 19.3151C34.3831 17.0783 32.8141 15.1664 30.801 13.8213C28.7879 12.4762 26.4211 11.7583 24 11.7583ZM24 31.9838C22.9461 32.0033 21.8991 31.8102 20.9216 31.4158C19.9441 31.0215 19.0561 30.4341 18.3108 29.6888C17.5654 28.9434 16.978 28.0555 16.5837 27.078C16.1893 26.1005 15.9961 25.0535 16.0156 23.9996C15.9961 22.9457 16.1893 21.8988 16.5837 20.9213C16.978 19.9438 17.5654 19.0558 18.3108 18.3105C19.0561 17.5651 19.9441 16.9778 20.9216 16.5834C21.8991 16.1891 22.9461 15.9959 24 16.0154C25.0539 15.9959 26.1009 16.1891 27.0784 16.5834C28.0559 16.9778 28.9439 17.5651 29.6892 18.3105C30.4346 19.0558 31.022 19.9438 31.4163 20.9213C31.8107 21.8988 32.0039 22.9457 31.9844 23.9996C32.0039 25.0535 31.8107 26.1005 31.4163 27.078C31.022 28.0555 30.4346 28.9434 29.6892 29.6888C28.9439 30.4341 28.0559 31.0215 27.0784 31.4158C26.1009 31.8102 25.0539 32.0033 24 31.9838ZM36.7744 8.30057C36.1953 8.30057 35.6292 8.47228 35.1477 8.794C34.6662 9.11572 34.291 9.57298 34.0694 10.108C33.8478 10.643 33.7898 11.2317 33.9027 11.7996C34.0157 12.3676 34.2946 12.8893 34.7041 13.2987C35.1135 13.7082 35.6352 13.987 36.2032 14.1C36.7711 14.213 37.3598 14.155 37.8948 13.9334C38.4299 13.7118 38.8871 13.3365 39.2089 12.855C39.5306 12.3736 39.7023 11.8075 39.7023 11.2284C39.696 10.4538 39.3855 9.71276 38.8378 9.16503C38.2901 8.61731 37.549 8.30683 36.7744 8.30057Z" fill="#FFF9F9"/>
</svg>
