<svg width="24" height="24" viewBox="0 0 24 24" fill="none" xmlns="http://www.w3.org/2000/svg">
<path fill-rule="evenodd" clip-rule="evenodd" d="M12 2.15348C13.5979 2.09354 15.198 2.13804 16.79 2.2867C17.5623 2.27722 18.3295 2.41279 19.0518 2.68636C20.0483 3.15076 20.8492 3.95162 21.3136 4.94811C21.5872 5.67038 21.7227 6.43758 21.7133 7.20986C21.7133 8.40735 21.8465 8.80701 21.8465 11.9998C21.9064 13.5977 21.8619 15.1977 21.7133 16.7897C21.7227 17.562 21.5872 18.3292 21.3136 19.0515C20.8492 20.048 20.0483 20.8489 19.0518 21.3133C18.3295 21.5868 17.5623 21.7224 16.79 21.7129C15.5925 21.7129 15.1928 21.8461 12 21.8461C10.4021 21.9061 8.80205 21.8616 7.20998 21.7129C6.43768 21.7224 5.67047 21.5868 4.94819 21.3133C3.95168 20.8489 3.15081 20.048 2.6864 19.0515C2.41283 18.3292 2.27726 17.562 2.28673 16.7897C2.28673 15.5923 2.15351 15.1926 2.15351 11.9998C2.09357 10.402 2.13808 8.80191 2.28673 7.20986C2.27726 6.43758 2.41283 5.67038 2.6864 4.94811C2.91854 4.45466 3.23344 4.00459 3.61746 3.6174C3.92932 3.15188 4.40398 2.81979 4.94819 2.68636C5.67047 2.41279 6.43768 2.27722 7.20998 2.2867C8.80205 2.13804 10.4021 2.09354 12 2.15348ZM12 0.0249444C10.3577 -0.0335845 8.71344 0.0109095 7.07676 0.158165C6.07708 0.155762 5.08536 0.335841 4.15035 0.689549C3.34296 0.952972 2.61222 1.40981 2.02179 2.02026C1.41058 2.61094 0.953199 3.34222 0.68956 4.15028C0.272178 5.06648 0.0895508 6.0722 0.158167 7.07664C0.0109097 8.7133 -0.0335851 10.3576 0.0249448 11.9998C-0.0335851 13.642 0.0109097 15.2863 0.158167 16.923C0.15606 17.9232 0.336653 18.9155 0.691057 19.8508C0.954484 20.6582 1.41132 21.3889 2.02179 21.9794C2.61222 22.5898 3.34296 23.0466 4.15035 23.3101C5.08574 23.6645 6.07798 23.845 7.07825 23.8429C8.71447 23.9896 10.3583 24.0336 12 23.9747C13.6423 24.0332 15.2866 23.9887 16.9232 23.8414C17.9235 23.8436 18.9158 23.663 19.8511 23.3086C20.6526 23.0325 21.3806 22.5775 21.98 21.9781C22.5793 21.3787 23.0343 20.6507 23.3104 19.8493C23.6648 18.914 23.8454 17.9217 23.8433 16.9215C23.8418 15.5923 23.9751 15.1926 23.9751 11.9998C24.0336 10.3576 23.9891 8.7133 23.8418 7.07664C23.8439 6.07639 23.6633 5.08416 23.3089 4.14879C23.0455 3.34141 22.5887 2.61068 21.9782 2.02026C21.3878 1.40981 20.657 0.952972 19.8496 0.689549C18.9146 0.335841 17.9229 0.155762 16.9232 0.158165C15.2866 0.0109095 13.6423 -0.0335845 12 0.0249444ZM12 5.87915C11.1925 5.8658 10.3906 6.01498 9.64198 6.31785C8.89334 6.62071 8.21326 7.07105 7.64222 7.64209C7.07117 8.21313 6.62081 8.89319 6.31795 9.64182C6.01508 10.3904 5.86589 11.1923 5.87925 11.9998C5.87925 13.2104 6.23822 14.3937 6.91078 15.4003C7.58334 16.4068 8.53927 17.1913 9.65769 17.6545C10.7761 18.1178 12.0068 18.239 13.1941 18.0028C14.3814 17.7667 15.472 17.1837 16.328 16.3278C17.184 15.4718 17.767 14.3812 18.0031 13.1939C18.2393 12.0066 18.1181 10.7759 17.6548 9.65753C17.1916 8.53913 16.4071 7.58322 15.4005 6.91067C14.394 6.23812 13.2106 5.87915 12 5.87915ZM12 15.9919C11.4731 16.0017 10.9496 15.9051 10.4608 15.7079C9.97204 15.5107 9.52805 15.217 9.15538 14.8444C8.78272 14.4717 8.48901 14.0277 8.29184 13.539C8.09467 13.0502 7.99807 12.5267 8.00782 11.9998C7.99807 11.4729 8.09467 10.9494 8.29184 10.4606C8.48901 9.97188 8.78272 9.5279 9.15538 9.15524C9.52805 8.78257 9.97204 8.48888 10.4608 8.29171C10.9496 8.09453 11.4731 7.99794 12 8.00769C12.5269 7.99794 13.0504 8.09453 13.5392 8.29171C14.028 8.48888 14.4719 8.78257 14.8446 9.15524C15.2173 9.5279 15.511 9.97188 15.7082 10.4606C15.9053 10.9494 16.0019 11.4729 15.9922 11.9998C16.0019 12.5267 15.9053 13.0502 15.7082 13.539C15.511 14.0277 15.2173 14.4717 14.8446 14.8444C14.4719 15.217 14.028 15.5107 13.5392 15.7079C13.0504 15.9051 12.5269 16.0017 12 15.9919ZM18.3872 4.15028C18.0977 4.15028 17.8146 4.23614 17.5739 4.397C17.3331 4.55786 17.1455 4.78649 17.0347 5.05399C16.9239 5.32149 16.8949 5.61583 16.9514 5.89981C17.0079 6.18378 17.1473 6.44463 17.352 6.64936C17.5568 6.8541 17.8176 6.99352 18.1016 7.05001C18.3856 7.10649 18.6799 7.0775 18.9474 6.9667C19.2149 6.8559 19.4436 6.66827 19.6044 6.42752C19.7653 6.18678 19.8511 5.90375 19.8511 5.61421C19.848 5.22692 19.6928 4.85638 19.4189 4.58252C19.145 4.30865 18.7745 4.15341 18.3872 4.15028Z" fill="#C22525"/>
</svg>
