<svg width="24" height="24" viewBox="0 0 24 24" fill="none" xmlns="http://www.w3.org/2000/svg">
<path fill-rule="evenodd" clip-rule="evenodd" d="M21 6H3L12 13.5L21 6ZM0 6C0.00237409 5.20508 0.319207 4.4434 0.881302 3.8813C1.4434 3.31921 2.20508 3.00237 3 3L21 3C21.7949 3.00237 22.5566 3.31921 23.1187 3.8813C23.6808 4.4434 23.9976 5.20508 24 6V18C23.9976 18.7949 23.6808 19.5566 23.1187 20.1187C22.5566 20.6808 21.7949 20.9976 21 21H3C2.20508 20.9976 1.4434 20.6808 0.881302 20.1187C0.319207 19.5566 0.00237409 18.7949 0 18L0 6Z" fill="#C22525"/>
</svg>
