<svg width="32" height="32" viewBox="0 0 32 32" fill="none" xmlns="http://www.w3.org/2000/svg">
<path fill-rule="evenodd" clip-rule="evenodd" d="M28 8H4L16 18L28 8ZM0 8C0.00316545 6.94011 0.425609 5.92453 1.17507 5.17507C1.92453 4.42561 2.94011 4.00317 4 4L28 4C29.0599 4.00317 30.0755 4.42561 30.8249 5.17507C31.5744 5.92453 31.9968 6.94011 32 8V24C31.9968 25.0599 31.5744 26.0755 30.8249 26.8249C30.0755 27.5744 29.0599 27.9968 28 28H4C2.94011 27.9968 1.92453 27.5744 1.17507 26.8249C0.425609 26.0755 0.00316545 25.0599 0 24L0 8Z" fill="#C8BBBB"/>
</svg>
