<svg width="48" height="48" viewBox="0 0 48 48" fill="none" xmlns="http://www.w3.org/2000/svg">
<path fill-rule="evenodd" clip-rule="evenodd" d="M42 12H6L24 27L42 12ZM0 12C0.00474818 10.4102 0.638414 8.88684 1.7626 7.76265C2.8868 6.63846 4.41016 6.00479 6 6.00005L42 6.00005C43.5898 6.00479 45.1132 6.63846 46.2374 7.76265C47.3616 8.88684 47.9953 10.4102 48 12V36C47.9953 37.5899 47.3616 39.1132 46.2374 40.2374C45.1132 41.3616 43.5898 41.9953 42 42H6C4.41016 41.9953 2.8868 41.3616 1.7626 40.2374C0.638414 39.1132 0.00474818 37.5899 0 36L0 12Z" fill="#FFF9F9"/>
</svg>
