<svg width="48" height="48" viewBox="0 0 48 48" fill="none" xmlns="http://www.w3.org/2000/svg">
<path d="M48 43.7736L38.0378 33.8114C40.8118 30.1697 42.2983 25.7101 42.2642 21.1323C42.2814 18.3524 41.7466 15.5967 40.6907 13.0251C39.6349 10.4535 38.079 8.11709 36.1132 6.15137C34.1475 4.18565 31.8111 2.62974 29.2395 1.57387C26.6679 0.517994 23.9122 -0.0168321 21.1323 0.000403705C18.3524 -0.0168321 15.5967 0.517994 13.0251 1.57387C10.4535 2.62974 8.11709 4.18565 6.15137 6.15137C4.18565 8.11709 2.62974 10.4535 1.57387 13.0251C0.517994 15.5967 -0.0168321 18.3524 0.000403705 21.1323C-0.0168321 23.9122 0.517994 26.6679 1.57387 29.2395C2.62974 31.8111 4.18565 34.1475 6.15137 36.1132C8.11709 38.079 10.4535 39.6349 13.0251 40.6907C15.5967 41.7466 18.3524 42.2814 21.1323 42.2642C25.7101 42.2983 30.1697 40.8118 33.8114 38.0378L43.7736 48L48 43.7736ZM6.03809 21.1323C6.01832 19.1446 6.39524 17.1729 7.14679 15.3327C7.89835 13.4924 9.00943 11.8206 10.415 10.415C11.8206 9.00943 13.4924 7.89835 15.3327 7.14679C17.1729 6.39524 19.1446 6.01832 21.1323 6.03809C23.12 6.01832 25.0917 6.39524 26.9319 7.14679C28.7722 7.89835 30.444 9.00943 31.8496 10.415C33.2552 11.8206 34.3663 13.4924 35.1178 15.3327C35.8694 17.1729 36.2463 19.1446 36.2265 21.1323C36.2463 23.12 35.8694 25.0917 35.1178 26.9319C34.3663 28.7722 33.2552 30.444 31.8496 31.8496C30.444 33.2552 28.7722 34.3663 26.9319 35.1178C25.0917 35.8694 23.12 36.2463 21.1323 36.2265C19.1446 36.2463 17.1729 35.8694 15.3327 35.1178C13.4924 34.3663 11.8206 33.2552 10.415 31.8496C9.00943 30.444 7.89835 28.7722 7.14679 26.9319C6.39524 25.0917 6.01832 23.12 6.03809 21.1323Z" fill="#0E0D0D"/>
</svg>
